<svg width="1400" height="2123" viewBox="0 0 1400 2123" fill="none" xmlns="http://www.w3.org/2000/svg">
<g opacity="0.03">
<path d="M254.034 1469.35C207.727 1488.74 190.139 1536.27 220.406 1563.4C282.675 1619.24 539.029 1591.66 551.091 1553.81C562.973 1516.52 350.662 1428.88 254.034 1469.35Z" stroke="#2E2D2B" stroke-width="2" stroke-miterlimit="10"/>
<path d="M368.777 1345.16C474.551 1308.11 652.157 1571.91 578.846 1634.19C533.772 1672.48 424.657 1667.7 335.674 1655.11C252.14 1643.3 132.78 1595 103.332 1514.77C87.7391 1472.19 97.0991 1411.51 130.123 1390.26C155.681 1373.82 190.184 1381.22 197.795 1378.48C234.081 1393.53 239.406 1399.38 268.316 1402.92C306.103 1407.53 339.687 1355.35 368.777 1345.16Z" stroke="#2E2D2B" stroke-width="2" stroke-miterlimit="10"/>
<path d="M476.098 1215.42C598.944 1235.03 732.44 1620.33 599.18 1709.01C514.311 1765.48 366.355 1740.54 263.226 1710.69C168.494 1683.26 10.7511 1591.75 -21.1628 1460.59C-39.7148 1384.38 -17.1721 1277.17 47.4179 1246.16C98.9039 1221.45 165.243 1242.7 176.923 1244.33C245.963 1281.47 251.546 1300.37 302.953 1313.09C371.018 1329.91 424.758 1207.18 476.098 1215.42Z" stroke="#2E2D2B" stroke-width="2" stroke-miterlimit="10"/>
<path d="M575.64 1086.54C711.277 1122.69 804.944 1669.31 611.735 1784.68C487.038 1859.13 300.196 1814.47 182.999 1767.12C76.9779 1724.29 -118.485 1589.54 -153.437 1407.25C-174.522 1297.32 -139.335 1143.82 -43.0777 1102.91C34.269 1070.03 133.049 1103.77 148.249 1111.04C254.516 1161.84 255.862 1202.21 329.845 1224.12C428.12 1253.3 504.604 1067.64 575.64 1086.54Z" stroke="#2E2D2B" stroke-width="2" stroke-miterlimit="10"/>
<path d="M669.196 963.515C819.405 1015.67 871.216 1723.6 618.304 1866.22C453.611 1958.27 227.961 1894.37 96.7965 1829.43C-20.6359 1771.3 -253.573 1593.31 -291.742 1359.78C-315.203 1216.23 -267.529 1016.37 -139.593 965.499C-36.3406 924.48 94.095 972.593 113.566 983.565C250.548 1060.76 254.091 1110.07 350.628 1141.01C479.136 1182.56 579.283 932.303 669.196 963.515Z" stroke="#2E2D2B" stroke-width="2" stroke-miterlimit="10"/>
<path d="M-240.312 829.724C-111.199 780.58 50.8145 842.993 74.6799 857.742C242.007 961.162 248.194 1019.2 367.252 1059.47C526.014 1113.16 650.419 797.671 758.469 842.052C924.439 910.225 933.755 1780.36 620.59 1949.32C416.249 2059.57 151.354 1975.92 6.3009 1893.29C-122.521 1819.91 -392.763 1598.7 -434.239 1313.87C-460.021 1136.71 -399.948 890.478 -240.312 829.724Z" stroke="#2E2D2B" stroke-width="2" stroke-miterlimit="10"/>
<path d="M1156.82 740.066C1105.96 739.64 1044.97 651.451 1090.58 636.725C1116.92 628.207 1186.67 641.678 1214.06 665.65C1252.65 699.384 1191.81 740.369 1156.82 740.066Z" stroke="#2E2D2B" stroke-width="2" stroke-miterlimit="10"/>
<path d="M1018.6 649.075C1023.58 637.24 1046.88 631.984 1068.15 617.572C1111.28 588.321 1117.47 574.424 1148.11 556.784C1160.06 549.891 1176.13 540.836 1191.82 544.983C1215.86 551.337 1221.85 578.84 1252.36 627.277C1291.9 690.217 1306.88 706.489 1295.58 739.842C1292.95 747.597 1289.54 772.713 1270.49 788.033C1244.12 809.214 1213.2 792.852 1174.55 806.872C1128.13 823.683 1105.12 853.606 1084.97 840.382C1070.78 831.068 1070.25 805.561 1059.63 761.147C1051.53 727.312 1046.45 705.111 1036.6 687C1024.8 665.437 1013.06 662.232 1018.6 649.075Z" stroke="#2E2D2B" stroke-width="2" stroke-miterlimit="10"/>
<path d="M940.862 673.742C941.725 652.762 974.681 642.608 1001.84 612.293C1057.54 550.104 1031.74 505.668 1076.39 460.234C1095.33 440.946 1125.06 422.264 1154.85 425.884C1197.14 431.028 1211.34 474.702 1276.43 563.25C1361.54 679.021 1397.79 701.693 1389.84 763.388C1388.22 775.963 1386.64 824.243 1353.38 853.304C1309.02 892.058 1255.85 856.8 1186.41 885.928C1108.82 918.429 1079.82 987.913 1053.65 973.534C1035.48 963.549 1042.44 923.337 1028.48 844.909C1018.59 789.165 1012.48 756.585 992.718 729.901C967.776 696.246 939.931 696.526 940.862 673.742Z" stroke="#2E2D2B" stroke-width="2" stroke-miterlimit="10"/>
<path d="M863.044 698.14C859.681 668.071 902.356 652.953 935.459 606.734C1003.61 511.585 944.852 437.214 1004.59 363.404C1030.16 331.822 1074.01 303.568 1117.81 306.516C1178.51 310.595 1200.94 370.106 1300.52 498.955C1431.45 667.309 1487.84 696.952 1484.14 786.666C1483.41 804.16 1483.75 875.483 1436.3 918.339C1373.95 974.633 1298.42 920.412 1198.31 964.737C1089.47 1012.93 1054.58 1121.94 1022.32 1106.45C1000.18 1095.74 1014.36 1040.87 997.313 928.425C985.543 850.771 978.448 807.97 948.809 772.556C910.607 726.92 866.642 730.529 863.044 698.14Z" stroke="#2E2D2B" stroke-width="2" stroke-miterlimit="10"/>
<path d="M785.047 722.471C777.503 683.347 829.774 663.207 868.896 601.119C949.359 472.954 857.518 368.94 932.623 266.518C964.727 222.697 1022.82 184.862 1080.59 187.081C1159.75 190.129 1190.05 265.677 1324.39 434.603C1500.73 655.833 1577.47 692.368 1578.15 809.887C1578.29 832.301 1580.51 926.599 1518.92 983.307C1438.5 1057.07 1340.76 983.923 1209.93 1043.49C1069.81 1107.3 1029.04 1255.94 990.812 1239.31C964.694 1227.9 986.104 1158.33 965.971 1011.89C952.284 912.309 944.247 859.344 904.733 815.154C853.236 757.594 793.163 764.543 785.047 722.471Z" stroke="#2E2D2B" stroke-width="2" stroke-miterlimit="10"/>
<path d="M706.905 746.79C719.538 798.568 795.697 788.257 860.477 857.742C909.878 910.718 918.857 973.826 934.461 1095.33C957.631 1275.77 929.024 1360.06 959.122 1372.15C1003.37 1389.94 1050.01 1201.66 1221.43 1122.23C1382.91 1047.41 1503.08 1139.65 1601.44 1048.26C1677.26 977.804 1673.04 860.532 1672.06 833.086C1666.83 687.796 1569.86 644.334 1348.1 370.229C1179 161.226 1140.86 69.6633 1043.19 67.6348C971.453 66.1442 899.094 113.584 860.477 169.62C770.049 300.744 895.149 434.457 802.187 595.493C757.135 673.529 695.146 698.622 706.905 746.79Z" stroke="#2E2D2B" stroke-width="2" stroke-miterlimit="10"/>
<path d="M1353.2 1580.16C1339.93 1573.43 1312.06 1586.39 1309.59 1606.57C1306.8 1629.47 1338.33 1648.41 1352.19 1642.52C1368.58 1635.55 1370.81 1589.06 1353.2 1580.16Z" stroke="#2E2D2B" stroke-width="2" stroke-miterlimit="10"/>
<path d="M1390.59 1701.81C1413.21 1680.66 1423.1 1641.85 1434.41 1575.33C1445.62 1509.36 1443.86 1462.13 1434.01 1458.7C1428.64 1456.86 1413.43 1471.32 1400.38 1481.93C1375.95 1501.72 1334.14 1499.52 1323.42 1501.66C1284.19 1509.51 1272.67 1524.08 1256.27 1551.98C1248.68 1564.87 1230.98 1593.45 1223.19 1627.07C1211.31 1677.98 1158.05 1693.67 1164.54 1714.08C1170 1731.12 1222.76 1735.25 1256.97 1735.74C1306.01 1736.43 1355.62 1734.47 1390.59 1701.81Z" stroke="#2E2D2B" stroke-width="2" stroke-miterlimit="10"/>
<path d="M1429.8 1758.66C1466.99 1720.87 1481.62 1657.45 1504.15 1538.85C1527.04 1419.67 1526.89 1337.92 1515.61 1334.88C1507.15 1332.55 1479.74 1362.01 1456.45 1383.07C1412.54 1422.93 1333.94 1416.37 1317.74 1418.93C1243.87 1430.34 1225.67 1457.67 1197.04 1509.34C1185.11 1530.86 1152.39 1583.31 1137.48 1645.25C1114.53 1740.14 1005.74 1764.99 1014.74 1800.17C1022.27 1829.46 1123.15 1833.95 1186.63 1831.55C1276.27 1828.06 1366.97 1822.55 1429.8 1758.66Z" stroke="#2E2D2B" stroke-width="2" stroke-miterlimit="10"/>
<path d="M1468.8 1815.15C1520.58 1760.73 1539.78 1672.65 1573.66 1502C1608.06 1329.58 1609.66 1213.5 1597 1210.61C1585.39 1207.92 1545.81 1252.3 1512.34 1283.87C1449.06 1343.91 1333.57 1332.87 1311.88 1335.76C1203.39 1350.24 1178.41 1390.73 1137.62 1466.27C1121.35 1496.41 1073.63 1572.74 1051.58 1662.97C1017.6 1801.85 853.269 1835.83 864.759 1885.79C874.355 1927.34 1023.39 1932.38 1116.11 1926.87C1246.32 1919.53 1378.26 1910.32 1468.8 1815.15Z" stroke="#2E2D2B" stroke-width="2" stroke-miterlimit="10"/>
<path d="M1507.68 1871.6C1574.08 1800.55 1597.84 1687.8 1643.06 1465.1C1689.02 1239.46 1692.38 1089.09 1678.28 1086.3C1663.53 1083.35 1611.75 1142.47 1568.12 1184.58C1485.35 1264.65 1333.1 1249.24 1305.92 1252.55C1162.81 1269.91 1130.85 1323.66 1078.1 1423.14C1057.41 1461.88 994.758 1562.11 965.59 1680.64C920.55 1863.5 700.672 1906.62 714.684 1971.37C726.331 2025.16 923.509 2030.53 1045.49 2022.17C1216.23 2010.66 1389.47 1998.1 1507.68 1871.6Z" stroke="#2E2D2B" stroke-width="2" stroke-miterlimit="10"/>
<path d="M1299.9 1169.3C1122.19 1189.47 1083.55 1256.72 1018.53 1380C993.536 1427.39 915.83 1551.47 879.534 1698.28C823.485 1925.14 548.03 1977.4 564.542 2056.91C578.263 2123.03 823.575 2128.64 974.816 2117.43C1186.14 2101.74 1400.66 2085.85 1546.51 1928.03C1627.54 1840.33 1655.84 1702.95 1712.41 1428.19C1769.84 1149.31 1774.96 964.681 1759.49 961.968C1741.56 958.83 1677.66 1032.57 1623.85 1085.25C1521.58 1185.35 1332.58 1165.59 1299.9 1169.3Z" stroke="#2E2D2B" stroke-width="2" stroke-miterlimit="10"/>
<path d="M-145.029 630.236C-124.852 707.565 19.9767 671.243 192.381 845.414C254.158 907.826 295.578 973.108 377.341 983.262C385.591 984.282 467.5 993.236 525.308 940.675C598.037 874.552 553.646 782.821 638.526 654.891C669.79 607.765 674.991 621.449 697.937 584.286C795.865 425.648 646.507 264.601 732.687 103.498C772.358 29.3398 831.332 12.3161 825.727 2.63307C801.537 -38.912 -199.553 421.86 -145.029 630.236Z" stroke="#2E2D2B" stroke-width="2" stroke-miterlimit="10"/>
<path d="M399.76 877.545C404.715 876.872 458.723 880.907 495.771 843.744C542.616 796.819 509.222 732.21 562.894 644.984C582.646 612.865 585.392 621.573 599.449 596.166C659.421 487.747 551.786 378.679 604.493 272.547C628.886 223.415 667.391 212.151 661.663 207.355C635.757 185.478 -25.0189 508.66 26.8819 649.288C46.3418 702.029 152.576 683.313 274.133 796.909C318.333 838.185 348.263 884.527 399.76 877.545Z" stroke="#2E2D2B" stroke-width="2" stroke-miterlimit="10"/>
<path d="M422.179 771.816C423.592 768.263 450.002 768.342 466.233 746.813C487.308 718.884 464.866 681.677 487.263 635.088C495.479 617.986 495.816 621.64 500.972 608.045C523.111 549.578 456.974 492.824 476.311 441.585C485.357 417.467 502.171 413.354 497.688 412.065C464.911 416.716 150.188 595.773 198.737 668.34C217.693 696.694 285.545 695.338 355.829 748.404C382.542 768.577 400.029 783.348 422.179 771.816Z" stroke="#2E2D2B" stroke-width="2" stroke-miterlimit="10"/>
<path d="M444.599 666.099C427.201 615.274 358.71 597.993 333.623 616.787C296.631 644.536 328.186 680.668 370.615 687.392C402.327 692.379 464.507 724.264 444.599 666.099Z" stroke="#2E2D2B" stroke-width="2" stroke-miterlimit="10"/>
</g>
</svg>
